<svg width="24" height="24" viewBox="0 0 24 24" fill="none" xmlns="http://www.w3.org/2000/svg">
<g id="Component 30" opacity="0.8">
<path id="Vector" d="M10.8015 18.0062C11.1897 18.0068 11.5041 18.3347 11.5035 18.7391C11.5029 19.1432 11.1879 19.4704 10.7994 19.4698C10.4109 19.4692 10.0968 19.1413 10.0974 18.7369C10.098 18.3328 10.413 18.0055 10.8015 18.0062ZM21.8256 13.4812C21.4374 13.4812 21.1227 13.153 21.123 12.7489C21.123 12.3448 21.4383 12.0172 21.8265 12.0176C22.2147 12.0179 22.5294 12.3458 22.5291 12.7499C22.5291 13.1539 22.2138 13.4815 21.8256 13.4812ZM21.8256 10.4874C20.6253 10.4886 19.6527 11.501 19.6515 12.7505C19.6515 12.9931 19.6905 13.2345 19.7664 13.4697L12.5853 17.4491C12.1812 16.8382 11.514 16.4735 10.8012 16.4738C9.97226 16.4738 9.21716 16.9681 8.85116 17.7395L2.40024 14.1982C1.71833 13.8257 1.20833 12.6577 1.26233 11.5938C1.29023 11.0389 1.47443 10.6079 1.75523 10.4415C1.93313 10.3375 2.14734 10.3456 2.37534 10.4696L2.41734 10.4936C4.12734 11.4305 9.72146 14.498 9.95726 14.6117C10.3203 14.7875 10.5222 14.8584 11.1423 14.5523L22.7064 8.29205C22.8765 8.22554 23.0745 8.05566 23.0745 7.79865C23.0745 7.44265 22.7196 7.30212 22.7196 7.30212C22.0617 6.97423 21.0507 6.48176 20.0646 6.00085C17.9565 4.97345 15.5676 3.80958 14.5185 3.23717C13.6125 2.74376 12.8835 3.16003 12.7536 3.24341L12.5016 3.37363C7.77955 5.80411 1.45943 9.06245 1.09943 9.29041C0.45653 9.69825 0.057529 10.5114 0.00562888 11.5201C-0.0744714 13.1199 0.708531 14.7887 1.82963 15.3996L8.65166 19.0617C8.80706 20.1737 9.72236 20.9988 10.8018 21C11.9883 20.9978 12.9546 20.0073 12.9747 18.7725L20.4888 14.5327C20.8689 14.8428 21.3417 15.0126 21.8259 15.0126C23.0262 15.0114 23.9988 13.999 24 12.7495C23.9988 11.5001 23.0259 10.4886 21.8256 10.4874Z" fill="#646765"/>
</g>
</svg>
