<svg width="24" height="24" viewBox="0 0 24 24" fill="none" xmlns="http://www.w3.org/2000/svg">
<g opacity="0.8">
<path d="M20.3303 4.09125C18.7767 3.34787 17.1156 2.80762 15.3789 2.5C15.1656 2.89436 14.9164 3.42479 14.7446 3.84674C12.8985 3.5628 11.0693 3.5628 9.25716 3.84674C9.08539 3.42479 8.83055 2.89436 8.61536 2.5C6.87681 2.80762 5.21376 3.34986 3.66019 4.09518C0.526643 8.93786 -0.322811 13.6603 0.101917 18.3156C2.18025 19.9029 4.19441 20.8671 6.17457 21.498C6.66349 20.8099 7.09953 20.0784 7.47518 19.3074C6.75975 19.0294 6.07453 18.6863 5.42707 18.288C5.59884 18.1579 5.76686 18.0218 5.92918 17.8818C9.87819 19.7708 14.1689 19.7708 18.0707 17.8818C18.235 18.0218 18.403 18.1579 18.5728 18.288C17.9235 18.6883 17.2364 19.0313 16.521 19.3094C16.8966 20.0784 17.3308 20.8119 17.8216 21.5C19.8036 20.869 21.8197 19.9049 23.898 18.3156C24.3964 12.9189 23.0467 8.23984 20.3303 4.09125ZM8.01318 15.4526C6.82772 15.4526 5.85555 14.3208 5.85555 12.9425C5.85555 11.5643 6.80696 10.4305 8.01318 10.4305C9.21942 10.4305 10.1916 11.5623 10.1708 12.9425C10.1727 14.3208 9.21942 15.4526 8.01318 15.4526ZM15.9867 15.4526C14.8013 15.4526 13.8291 14.3208 13.8291 12.9425C13.8291 11.5643 14.7805 10.4305 15.9867 10.4305C17.193 10.4305 18.1651 11.5623 18.1444 12.9425C18.1444 14.3208 17.193 15.4526 15.9867 15.4526Z" fill="#646765"/>
</g>
</svg>
