<svg width="24" height="24" viewBox="0 0 24 24" fill="none" xmlns="http://www.w3.org/2000/svg">
<path d="M2.3485 10.8353L15.4549 5.49516C16.7482 4.93889 21.1344 3.15883 21.1344 3.15883C21.1344 3.15883 23.1587 2.38006 22.99 4.27137C22.9338 5.05014 22.4839 7.77586 22.0341 10.7284L20.6283 19.466C20.6283 19.466 20.5158 20.7454 19.5599 20.968C18.6039 21.1905 17.0294 20.1892 16.7482 19.9667C16.5233 19.7998 12.5308 17.2966 11.0688 16.0728C10.6752 15.739 10.2253 15.0715 11.125 14.2927C13.1494 12.4571 15.5674 10.1764 17.0294 8.73007C17.7042 8.06255 18.379 6.505 15.5674 8.39631L7.63432 13.6723C7.63432 13.6723 6.7346 14.2286 5.04764 13.7279C3.36068 13.2273 1.39255 12.5598 1.39255 12.5598C1.39255 12.5598 0.042982 11.7254 2.3485 10.8353Z" fill="white"/>
</svg>
